# xmcd
#
# Track frame offsets:
#	150
#	13516
#	27221
#	39900
#	52722
#	64208
#	75480
#	87205
#	95618
#	109537
#	121590
#	133151
#	145313
#	158105
#
# Disc length: 2426 seconds
# Revision: 1
# Processed by: cddbd v1.5.2PL0 Copyright (c) Steve Scherf et al.
# Submitted via: dBpowerAMP V12.0
#
DISCID=a309780e
DTITLE=Various Artist - Texas Guitar: From Dallas To L.A.
DYEAR=2009
DGENRE=Blues
TTITLE0=Al King - Reconsider Baby
TTITLE1=Lawyer Houston - Dallas Bebop Blues
TTITLE2=Lawyer Houston - Western Rider Blues
TTITLE3=Ray Agee - Tin Pan Alley
TTITLE4=Lawyer Houston - Hug Me Baby
TTITLE5=Lawyer Houston - Out In California Blues
TTITLE6=T-Bone Walker - T-Bone Blues Special
TTITLE7=R.S. Rankin - You Don't Know What You're Doing
TTITLE8=Lawyer Houston - In The Army Since 1941
TTITLE9=Lawyer Houston - Lawyer Houston Blues
TTITLE10=Guitar Slim - Along About Midnight
TTITLE11=Lawyer Houston - Going To The West Coast
TTITLE12=Lawyer Houston - Lawton, Oklahoma Blues
TTITLE13=T-Bone Walker - How Long Blues
EXTD=
EXTT0=
EXTT1=
EXTT2=
EXTT3=
EXTT4=
EXTT5=
EXTT6=
EXTT7=
EXTT8=
EXTT9=
EXTT10=
EXTT11=
EXTT12=
EXTT13=
PLAYORDER=
